<?xml version="1.0" encoding="UTF-8" standalone="no"?>
<!-- Created with Inkscape (http://www.inkscape.org/) -->

<svg
   width="64"
   version="1.1"
   height="64"
   id="svg2"
   inkscape:version="1.4 (e7c3feb100, 2024-10-09)"
   sodipodi:docname="org.kde.dolphin.svg"
   inkscape:export-filename="../kde/src/dolphin/src/icons/128-apps-org.kde.dolphin.png"
   inkscape:export-xdpi="192"
   inkscape:export-ydpi="192"
   xmlns:inkscape="http://www.inkscape.org/namespaces/inkscape"
   xmlns:sodipodi="http://sodipodi.sourceforge.net/DTD/sodipodi-0.dtd"
   xmlns:xlink="http://www.w3.org/1999/xlink"
   xmlns="http://www.w3.org/2000/svg"
   xmlns:svg="http://www.w3.org/2000/svg"
   xmlns:rdf="http://www.w3.org/1999/02/22-rdf-syntax-ns#"
   xmlns:cc="http://creativecommons.org/ns#"
   xmlns:dc="http://purl.org/dc/elements/1.1/">
  <sodipodi:namedview
     pagecolor="#ffffff"
     bordercolor="#666666"
     borderopacity="1"
     objecttolerance="10"
     gridtolerance="10"
     guidetolerance="10"
     inkscape:pageopacity="0"
     inkscape:pageshadow="2"
     inkscape:window-width="1920"
     inkscape:window-height="1052"
     id="namedview17"
     showgrid="false"
     inkscape:snap-bbox="true"
     inkscape:bbox-nodes="true"
     inkscape:zoom="11.313708"
     inkscape:cx="50.381358"
     inkscape:cy="35.399533"
     inkscape:current-layer="layer1"
     showguides="false"
     inkscape:guide-bbox="true"
     inkscape:object-nodes="true"
     inkscape:pagecheckerboard="0"
     inkscape:window-x="0"
     inkscape:window-y="0"
     inkscape:window-maximized="1"
     inkscape:showpageshadow="2"
     inkscape:deskcolor="#d1d1d1">
    <inkscape:grid
       type="xygrid"
       id="grid4145"
       originx="0"
       originy="0"
       spacingy="1"
       spacingx="1"
       units="px"
       visible="false" />
    <sodipodi:guide
       position="26,40"
       orientation="0.70710678,0.70710678"
       id="guide4381"
       inkscape:locked="false" />
    <sodipodi:guide
       position="3,35"
       orientation="0.70710678,0.70710678"
       id="guide4401"
       inkscape:locked="false" />
  </sodipodi:namedview>
  <defs
     id="defs5455">
    <linearGradient
       inkscape:collect="always"
       id="linearGradient3">
      <stop
         style="stop-color:#000000;stop-opacity:1;"
         offset="0"
         id="stop2" />
      <stop
         style="stop-color:#000000;stop-opacity:1;"
         offset="1"
         id="stop3" />
    </linearGradient>
    <linearGradient
       inkscape:collect="always"
       id="linearGradient82546">
      <stop
         style="stop-color:#000000;stop-opacity:1"
         offset="0"
         id="stop82542" />
      <stop
         style="stop-color:#000000;stop-opacity:0;"
         offset="1"
         id="stop82544" />
    </linearGradient>
    <linearGradient
       inkscape:collect="always"
       id="linearGradient39400">
      <stop
         style="stop-color:#000000;stop-opacity:1"
         offset="0"
         id="stop39396" />
      <stop
         style="stop-color:#147cdc;stop-opacity:0;"
         offset="1"
         id="stop39398" />
    </linearGradient>
    <linearGradient
       inkscape:collect="always"
       id="linearGradient919">
      <stop
         style="stop-color:#ffffff;stop-opacity:1;"
         offset="0"
         id="stop915" />
      <stop
         style="stop-color:#ffffff;stop-opacity:0;"
         offset="1"
         id="stop917" />
    </linearGradient>
    <linearGradient
       inkscape:collect="always"
       id="linearGradient4393">
      <stop
         style="stop-color:#000000;stop-opacity:1;"
         offset="0"
         id="stop4395" />
      <stop
         style="stop-color:#000000;stop-opacity:0;"
         offset="1"
         id="stop4397" />
    </linearGradient>
    <linearGradient
       id="linearGradient4227"
       inkscape:collect="always">
      <stop
         id="stop4229"
         offset="0"
         style="stop-color:#f5f5f5;stop-opacity:1" />
      <stop
         id="stop4231"
         offset="1"
         style="stop-color:#f9f9f9;stop-opacity:1" />
    </linearGradient>
    <linearGradient
       id="linearGradient4274"
       inkscape:collect="always">
      <stop
         id="stop4276"
         offset="0"
         style="stop-color:#ffffff;stop-opacity:1;" />
      <stop
         id="stop4278"
         offset="1"
         style="stop-color:#ffffff;stop-opacity:0.48760331" />
    </linearGradient>
    <linearGradient
       inkscape:collect="always"
       xlink:href="#linearGradient919"
       id="linearGradient921"
       x1="339.66766"
       y1="472.30182"
       x2="357.40253"
       y2="502.19492"
       gradientUnits="userSpaceOnUse"
       gradientTransform="translate(66.903794,39.496194)" />
    <linearGradient
       inkscape:collect="always"
       xlink:href="#linearGradient39400"
       id="linearGradient39402"
       x1="376.81827"
       y1="549.95038"
       x2="337.81827"
       y2="519.95038"
       gradientUnits="userSpaceOnUse"
       gradientTransform="translate(68.75316,-8.152382)" />
    <linearGradient
       inkscape:collect="always"
       xlink:href="#linearGradient4393"
       id="linearGradient49568"
       gradientUnits="userSpaceOnUse"
       gradientTransform="translate(-22.999995,4.999998)"
       x1="443.57144"
       y1="510.798"
       x2="443.57144"
       y2="526.79797" />
    <linearGradient
       inkscape:collect="always"
       xlink:href="#linearGradient4274"
       id="linearGradient76299"
       gradientUnits="userSpaceOnUse"
       gradientTransform="translate(-3e-6,3)"
       x1="390.57144"
       y1="498.298"
       x2="442.57144"
       y2="498.298" />
    <linearGradient
       inkscape:collect="always"
       xlink:href="#linearGradient4227"
       id="linearGradient76301"
       gradientUnits="userSpaceOnUse"
       gradientTransform="translate(-3e-6,1)"
       x1="396.57144"
       y1="498.798"
       x2="426.57144"
       y2="511.798" />
    <linearGradient
       inkscape:collect="always"
       xlink:href="#linearGradient82546"
       id="linearGradient82548"
       x1="357.48947"
       y1="494.85211"
       x2="384.41882"
       y2="541.49512"
       gradientUnits="userSpaceOnUse"
       gradientTransform="translate(58.00001)" />
    <style
       id="current-color-scheme"
       type="text/css">      .ColorScheme-Highlight {
        color:#3593e6;
      }</style>
    <linearGradient
       inkscape:collect="always"
       xlink:href="#linearGradient3"
       id="linearGradient2"
       x1="410.57144"
       y1="512.79803"
       x2="432.07144"
       y2="552.42297"
       gradientUnits="userSpaceOnUse" />
  </defs>
  <metadata
     id="metadata5458">
    <rdf:RDF>
      <cc:Work
         rdf:about="">
        <dc:format>image/svg+xml</dc:format>
        <dc:type
           rdf:resource="http://purl.org/dc/dcmitype/StillImage" />
      </cc:Work>
    </rdf:RDF>
  </metadata>
  <g
     inkscape:label="Capa 1"
     inkscape:groupmode="layer"
     id="layer1"
     transform="matrix(1 0 0 1 -384.57143 -483.798)">
    <path
       inkscape:connector-curvature="0"
       style="fill:currentColor"
       id="path76317"
       d="m 388.57143,489.79812 v 5 22 c 0,0.55373 0.446,1 1,1 h 54 c 0.55399,0 1,-0.44627 1,-1 v -21.99023 c 0,-0.003 -0.002,-0.006 -0.002,-0.01 h 0.002 v -1 h -28 l -4,-4 h -24 z"
       class="ColorScheme-Highlight" />
    <path
       inkscape:connector-curvature="0"
       style="opacity:0.35;fill:url(#linearGradient82548);fill-opacity:1"
       id="path76289"
       d="m 388.57143,489.79812 v 5 22 c 0,0.55373 0.446,1 1,1 h 54 c 0.55399,0 1,-0.44627 1,-1 v -21.99023 c 0,-0.003 -0.002,-0.006 -0.002,-0.01 h 0.002 v -1 h -28 l -4,-4 h -24 z" />
    <rect
       ry="0.99999583"
       rx="1.0000117"
       y="498.798"
       x="390.57144"
       height="14.999973"
       width="52.000011"
       id="rect76291"
       style="color:#000000;clip-rule:nonzero;display:inline;overflow:visible;visibility:visible;isolation:auto;mix-blend-mode:normal;color-interpolation:sRGB;color-interpolation-filters:linearRGB;solid-color:#000000;solid-opacity:1;fill:url(#linearGradient76301);fill-opacity:1;fill-rule:nonzero;stroke:none;stroke-width:1;stroke-linecap:butt;stroke-linejoin:miter;stroke-miterlimit:4;stroke-dasharray:none;stroke-dashoffset:0;stroke-opacity:1;marker:none;color-rendering:auto;image-rendering:auto;shape-rendering:auto;text-rendering:auto;enable-background:accumulate" />
    <path
       inkscape:connector-curvature="0"
       style="opacity:0.3;fill:#ffffff;fill-opacity:1;fill-rule:evenodd"
       id="path76293"
       d="m 387.57144,511.798 v 1 h 19.99999 l 3,-5 -4,4 z" />
    <path
       inkscape:connector-curvature="0"
       style="opacity:0.3;fill:#ffffff;fill-opacity:1;fill-rule:evenodd"
       id="path76295"
       d="m 412.57143,489.798 3,5 h 2 27 v -1 h -27 -1 z" />
    <path
       inkscape:connector-curvature="0"
       id="path76297"
       d="m 391.57143,498.798 c -0.55401,0 -1,0.446 -1,1 v 1 c 0,-0.554 0.44599,-1 1,-1 h 50 c 0.55401,0 1,0.446 1,1 v -1 c 0,-0.554 -0.44599,-1 -1,-1 z"
       style="color:#000000;clip-rule:nonzero;display:inline;overflow:visible;visibility:visible;opacity:0.85;isolation:auto;mix-blend-mode:normal;color-interpolation:sRGB;color-interpolation-filters:linearRGB;solid-color:#000000;solid-opacity:1;fill:url(#linearGradient76299);fill-opacity:1;fill-rule:nonzero;stroke:none;stroke-width:1;stroke-linecap:butt;stroke-linejoin:miter;stroke-miterlimit:4;stroke-dasharray:none;stroke-dashoffset:0;stroke-opacity:1;marker:none;color-rendering:auto;image-rendering:auto;shape-rendering:auto;text-rendering:auto;enable-background:accumulate" />
    <path
       style="fill:currentColor"
       d="m 410.57144,507.79802 -4,4 h -19 v 1 h 0.002 c -5e-5,0.004 -0.002,0.008 -0.002,0.0117 v 26.98828 1 c 0,0.554 0.44599,1 1,1 h 56 c 0.55401,0 1,-0.446 1,-1 v -1 -26.98828 -0.0117 -5 z"
       id="path889"
       class="ColorScheme-Highlight" />
    <path
       style="opacity:0.1;fill:url(#linearGradient921);fill-opacity:1"
       d="m 410.57144,507.79802 -4,4 h -19 v 1 h 0.002 c -5e-5,0.004 -0.002,0.008 -0.002,0.0117 v 26.98828 1 c 0,0.554 0.44599,1 1,1 h 56 c 0.55401,0 1,-0.446 1,-1 v -1 -26.98828 -0.0117 -5 z"
       id="path893" />
    <path
       style="opacity:0.3;fill:url(#linearGradient39402);fill-opacity:1"
       d="m 410.57144,507.79802 -4,4 h -19 v 1 h 0.002 c -5e-5,0.004 -0.002,0.008 -0.002,0.0117 v 26.98828 1 c 0,0.554 0.44599,1 1,1 h 56 c 0.55401,0 1,-0.446 1,-1 v -1 -26.98828 -0.0117 -5 z"
       id="path35453" />
    <path
       style="opacity:0.109;fill:url(#linearGradient49568);fill-opacity:1;fill-rule:evenodd;stroke:none;stroke-width:1px;stroke-linecap:butt;stroke-linejoin:miter;stroke-opacity:1"
       d="m 387.57144,512.798 h 20 l 3,-5 h 35 v 33 h -30 c 5.86125,1.01346 -18.18614,-18.33945 -28,-28 z"
       id="path49566"
       inkscape:connector-curvature="0"
       sodipodi:nodetypes="ccccccc" />
    <path
       inkscape:connector-curvature="0"
       style="opacity:0.3;fill:#ffffff;fill-opacity:1;fill-rule:evenodd"
       id="path49671"
       d="m 387.57145,511.79802 v 1 h 19.99999 l 3,-5 -4,4 z" />
    <path
       style="color:#000000;clip-rule:nonzero;display:inline;overflow:visible;visibility:visible;opacity:0.3;isolation:auto;mix-blend-mode:normal;color-interpolation:sRGB;color-interpolation-filters:linearRGB;solid-color:#000000;solid-opacity:1;fill:#000000;fill-opacity:1;fill-rule:nonzero;stroke:none;stroke-width:1;stroke-linecap:butt;stroke-linejoin:miter;stroke-miterlimit:4;stroke-dasharray:none;stroke-dashoffset:0;stroke-opacity:1;marker:none;color-rendering:auto;image-rendering:auto;shape-rendering:auto;text-rendering:auto;enable-background:accumulate"
       d="m 388.57144,541.798 c -0.55401,0 -1,-0.446 -1,-1 v -1 c 0,0.554 0.44599,1 1,1 h 56 c 0.55401,0 1,-0.446 1,-1 v 1 c 0,0.554 -0.44599,1 -1,1 z"
       id="path49673"
       inkscape:connector-curvature="0"
       sodipodi:nodetypes="sscsscsss" />
    <path
       id="path1"
       style="font-variation-settings:normal;display:inline;opacity:1;vector-effect:none;fill:url(#linearGradient2);fill-opacity:0.33;stroke-width:1;stroke-linecap:butt;stroke-linejoin:miter;stroke-miterlimit:4;stroke-dasharray:none;stroke-dashoffset:0;stroke-opacity:1;-inkscape-stroke:none;stop-color:#000000;stop-opacity:1"
       d="m 423.79995,516.41909 c -2.81948,0.0187 -6.31091,0.81893 -10.55664,3.12305 -9.70454,5.26657 -12.3399,14.61773 -19.42383,22.22266 l 33.17578,0.0195 c 0.40751,-7.78679 4.20506,-10.1008 10.11719,-16.90235 0,0 3.74379,-3.30786 2.9082,-6.42187 -0.88465,-3.29683 -7.73537,0.70531 -8.5,0.21484 -1.58132,-1.01431 -4.09566,-2.27984 -7.7207,-2.25586 z m 15.43945,3 c -1.7727,2.32357 -3.9733,4.57204 -6.96484,7.32813 -2.91756,2.68793 -7.93093,6.51226 -8.16407,6.10937 -0.0635,-0.10965 5.14292,-4.08934 7.65821,-6.41211 2.71178,-2.50422 5.07909,-4.71829 7.4707,-7.02539 z m -21.48047,11.66016 c 0.75939,0 1.375,0.75552 1.375,1.6875 0,0.93198 -0.61561,1.6875 -1.375,1.6875 -0.75939,0 -1.375,-0.75552 -1.375,-1.6875 0,-0.93198 0.61561,-1.6875 1.375,-1.6875 z m -6.33398,4.54205 c 0.30814,0.0327 0.83484,0.82241 1.62411,1.50601 0.95049,0.82288 1.8477,1.33755 1.70401,1.50376 -0.14505,0.16466 -1.2743,-0.0803 -2.22354,-0.9022 -0.95047,-0.82287 -1.36154,-1.91205 -1.21787,-2.07827 0.0209,-0.0248 0.059,-0.0347 0.11329,-0.0293 z m -1.57813,1.64258 c 0.30423,0.0279 0.83306,0.81762 1.62607,1.50406 0.95048,0.82287 1.84768,1.33753 1.70401,1.50375 -0.14237,0.16777 -1.27374,-0.0779 -2.22549,-0.90219 -0.95212,-0.82448 -1.36293,-1.91442 -1.21592,-2.07828 0.0212,-0.0233 0.0586,-0.0325 0.11133,-0.0273 z"
       sodipodi:nodetypes="cscccsccccscscsssssccccccccccccc" />
    <path
       style="fill:#1a1a1a"
       d="m 423.94643,532.4855 15.6875,-13.6875 z"
       id="path4" />
  </g>
</svg>
